<svg width="200" height="200" viewBox="0 0 200 200" fill="none" xmlns="http://www.w3.org/2000/svg">
<path fill-rule="evenodd" clip-rule="evenodd" d="M140 18H52V182H74C76.2091 182 78 183.791 78 186C78 188.209 76.2091 190 74 190H48H23C20.7909 190 19 188.209 19 186C19 183.791 20.7909 182 23 182H44V14C44 11.7909 45.7909 10 48 10H144C144.276 10 144.546 10.028 144.806 10.0813C146.629 10.4543 148 12.067 148 14V50C148 50.111 147.995 50.2209 147.987 50.3296C159.344 52.2284 168 62.1033 168 74C168 85.8967 159.344 95.7716 147.987 97.6704C147.995 97.7791 148 97.889 148 98V107.228L177.404 118.255C179.473 119.03 180.521 121.336 179.745 123.404C178.97 125.473 176.664 126.521 174.596 125.745L148 115.772V150.454L166.96 171.309C168.446 172.944 168.325 175.474 166.691 176.96C165.056 178.446 162.526 178.325 161.04 176.691L144.077 158.031L128.027 176.614C126.583 178.286 124.057 178.471 122.386 177.027C120.714 175.583 120.529 173.057 121.973 171.386L140 150.512V140.833L145.286 148.212C145.292 148.214 145.299 148.216 145.305 148.218L140 140.814V115.772L125.857 121.076L121.031 114.341L140 107.228V98C140 97.889 140.005 97.7791 140.013 97.6704C128.656 95.7716 120 85.8967 120 74C120 62.1033 128.656 52.2284 140.013 50.3296C140.005 50.2209 140 50.111 140 50V18ZM121.023 114.344L52 18L121.031 114.341L121.023 114.344ZM121.023 114.344L125.848 121.079L113.404 125.745C111.336 126.521 109.03 125.473 108.255 123.404C107.479 121.336 108.527 119.03 110.596 118.255L121.023 114.344ZM125.848 121.079L140 140.833V140.814L125.857 121.076L125.848 121.079ZM144 90C152.837 90 160 82.8366 160 74C160 65.1634 152.837 58 144 58C135.163 58 128 65.1634 128 74C128 82.8366 135.163 90 144 90Z" fill="#161616"/>
</svg>
