<svg width="200" height="200" viewBox="0 0 200 200" fill="none" xmlns="http://www.w3.org/2000/svg">
<path fill-rule="evenodd" clip-rule="evenodd" d="M52 18H140V47C140 47.111 140.005 47.2209 140.013 47.3296C128.656 49.2284 120 59.1033 120 71C120 84.2548 130.745 95 144 95C157.255 95 168 84.2548 168 71C168 59.1033 159.344 49.2284 147.987 47.3296C147.995 47.2209 148 47.111 148 47V14C148 12.067 146.629 10.4543 144.806 10.0813C144.546 10.028 144.276 10 144 10H48C45.7909 10 44 11.7909 44 14V182H23C20.7909 182 19 183.791 19 186C19 188.209 20.7909 190 23 190H48H74C76.2091 190 78 188.209 78 186C78 183.791 76.2091 182 74 182H52V18ZM160 71C160 79.8366 152.837 87 144 87C135.163 87 128 79.8366 128 71C128 62.1634 135.163 55 144 55C152.837 55 160 62.1634 160 71Z" fill="#161616"/>
</svg>
