<svg width="200" height="200" viewBox="0 0 200 200" fill="none" xmlns="http://www.w3.org/2000/svg">
<path fill-rule="evenodd" clip-rule="evenodd" d="M140 18H52V182H74C76.2091 182 78 183.791 78 186C78 188.209 76.2091 190 74 190H48H23C20.7909 190 19 188.209 19 186C19 183.791 20.7909 182 23 182H44V14C44 11.7909 45.7909 10 48 10H144C144.276 10 144.546 10.028 144.806 10.0813C146.629 10.4543 148 12.067 148 14V50C148 50.111 147.995 50.2209 147.987 50.3296C159.344 52.2284 168 62.1033 168 74C168 85.8967 159.344 95.7716 147.987 97.6704C147.995 97.7791 148 97.889 148 98V152C148 154.209 146.209 156 144 156C141.791 156 140 154.209 140 152V98C140 97.889 140.005 97.7791 140.013 97.6704C128.656 95.7716 120 85.8967 120 74C120 62.1033 128.656 52.2284 140.013 50.3296C140.005 50.2209 140 50.111 140 50V18ZM144 90C152.837 90 160 82.8366 160 74C160 65.1634 152.837 58 144 58C135.163 58 128 65.1634 128 74C128 82.8366 135.163 90 144 90Z" fill="#161616"/>
</svg>
