<svg width="200" height="200" viewBox="0 0 200 200" fill="none" xmlns="http://www.w3.org/2000/svg">
<path fill-rule="evenodd" clip-rule="evenodd" d="M52 18H140V50C140 50.111 140.005 50.2209 140.013 50.3296C128.656 52.2284 120 62.1033 120 74C120 85.8967 128.656 95.7716 140.013 97.6704C140.005 97.7791 140 97.889 140 98V107.228L110.596 118.255C108.527 119.03 107.479 121.336 108.255 123.404C109.03 125.473 111.336 126.521 113.404 125.745L140 115.772V150.512L121.973 171.386C120.529 173.057 120.714 175.583 122.386 177.027C124.057 178.471 126.583 178.286 128.027 176.614L147.015 154.629C147.039 154.601 147.063 154.573 147.087 154.544C147.657 153.853 148 152.966 148 152M148 151.979V115.772L174.596 125.745C176.664 126.521 178.97 125.473 179.745 123.404C180.521 121.336 179.473 119.03 177.404 118.255L148 107.228V98C148 97.889 147.995 97.7791 147.987 97.6704C159.344 95.7716 168 85.8967 168 74C168 62.1033 159.344 52.2284 147.987 50.3296C147.995 50.2209 148 50.111 148 50V14C148 12.067 146.629 10.4543 144.806 10.0813C144.546 10.028 144.276 10 144 10H48C45.7909 10 44 11.7909 44 14V182H23C20.7909 182 19 183.791 19 186C19 188.209 20.7909 190 23 190H48H74C76.2091 190 78 188.209 78 186C78 183.791 76.2091 182 74 182H52V18M160 74C160 82.8366 152.837 90 144 90C135.163 90 128 82.8366 128 74C128 65.1634 135.163 58 144 58C152.837 58 160 65.1634 160 74Z" fill="#161616"/>
</svg>
